fd_2_states
version=1
nRows=15
nColumns=17
inDegrees=yes

# SIMM Motion File Header:
name fd_2_states
datacolumns 17
datarows 15
otherdata 1
range 0.481855 0.485285
endheader
time	/jointset/r_shoulder/r_shoulder_elev/value	/jointset/r_shoulder/r_shoulder_elev/speed	/jointset/r_elbow/r_elbow_flex/value	/jointset/r_elbow/r_elbow_flex/speed	/forceset/TRIlong/activation	/forceset/TRIlong/fiber_length	/forceset/TRIlat/activation	/forceset/TRIlat/fiber_length	/forceset/TRImed/activation	/forceset/TRImed/fiber_length	/forceset/BIClong/activation	/forceset/BIClong/fiber_length	/forceset/BICshort/activation	/forceset/BICshort/fiber_length	/forceset/BRA/activation	/forceset/BRA/fiber_length
      0.481855	      2.705917	     87.096187	    128.040251	    300.015276	      0.024771	      0.183769	      0.397483	      0.115328	      0.389580	      0.110427	      0.938667	      0.063602	      0.710034	      0.063392	      0.685794	      0.052230
      0.482077	      2.725322	     87.058466	    128.107290	    301.620323	      0.024757	      0.183836	      0.396326	      0.115353	      0.388460	      0.110452	      0.939379	      0.063548	      0.704060	      0.063347	      0.680163	      0.052206
      0.482300	      2.744720	     87.031251	    128.174680	    303.165158	      0.024743	      0.183845	      0.395179	      0.115379	      0.387348	      0.110478	      0.940082	      0.063495	      0.698172	      0.063302	      0.674611	      0.052183
      0.482490	      2.761267	     87.002793	    128.232450	    304.418950	      0.024731	      0.183868	      0.394206	      0.115400	      0.386406	      0.110499	      0.940676	      0.063449	      0.693214	      0.063264	      0.669933	      0.052163
      0.482786	      2.786939	     86.957285	    128.322571	    306.255405	      0.024712	      0.183942	      0.392710	      0.115434	      0.384956	      0.110532	      0.941585	      0.063378	      0.685637	      0.063205	      0.662782	      0.052132
      0.483081	      2.812599	     86.922461	    128.413216	    307.971675	      0.024693	      0.183959	      0.391228	      0.115468	      0.383520	      0.110566	      0.942479	      0.063306	      0.678199	      0.063148	      0.655759	      0.052102
      0.483344	      2.835456	     86.886272	    128.494408	    309.382553	      0.024677	      0.183998	      0.389920	      0.115499	      0.382252	      0.110596	      0.943264	      0.063242	      0.671686	      0.063097	      0.649606	      0.052074
      0.483578	      2.855783	     86.852919	    128.566937	    310.546582	      0.024662	      0.184065	      0.388767	      0.115526	      0.381134	      0.110623	      0.943953	      0.063185	      0.665980	      0.063053	      0.644214	      0.052050
      0.483812	      2.876103	     86.829337	    128.639731	    311.637410	      0.024648	      0.184076	      0.387622	      0.115553	      0.380024	      0.110649	      0.944633	      0.063128	      0.660357	      0.063008	      0.638897	      0.052026
      0.483999	      2.892332	     86.805187	    128.698062	    312.441997	      0.024636	      0.184100	      0.386714	      0.115575	      0.379144	      0.110671	      0.945170	      0.063082	      0.655922	      0.062973	      0.634703	      0.052006
      0.484275	      2.916348	     86.767249	    128.784676	    313.531736	      0.024619	      0.184175	      0.385381	      0.115607	      0.377851	      0.110703	      0.945955	      0.063014	      0.649448	      0.062921	      0.628578	      0.051977
      0.484552	      2.940355	     86.740122	    128.871578	    314.516362	      0.024602	      0.184189	      0.384059	      0.115639	      0.376570	      0.110735	      0.946729	      0.062946	      0.643082	      0.062870	      0.622552	      0.051948
      0.484743	      2.956955	     86.715351	    128.931836	    315.121802	      0.024590	      0.184216	      0.383153	      0.115661	      0.375690	      0.110757	      0.947257	      0.062899	      0.638740	      0.062834	      0.618441	      0.051928
      0.485014	      2.980438	     86.677502	    129.017296	    315.880132	      0.024573	      0.184295	      0.381879	      0.115693	      0.374455	      0.110788	      0.947995	      0.062832	      0.632680	      0.062785	      0.612701	      0.051899
      0.485285	      3.003913	     86.652176	    129.102949	    316.542033	      0.024557	      0.184306	      0.380617	      0.115725	      0.373231	      0.110820	      0.948723	      0.062765	      0.626716	      0.062735	      0.607050	      0.051871
